<?xml version="1.0" encoding="UTF-8"?>
<!DOCTYPE svg PUBLIC "-//W3C//DTD SVG 1.0//EN" "http://www.w3.org/TR/2001/REC-SVG-20010904/DTD/svg10.dtd">
<!-- Creator: CorelDRAW X6 -->
<svg xmlns="http://www.w3.org/2000/svg" xml:space="preserve" width="10.1303cm" height="7.33511cm" version="1.0" style="shape-rendering:geometricPrecision; text-rendering:geometricPrecision; image-rendering:optimizeQuality; fill-rule:evenodd; clip-rule:evenodd"
viewBox="0 0 10130 7335"
 xmlns:xlink="http://www.w3.org/1999/xlink">
 <defs>
  <style type="text/css">
   <![CDATA[
    .fil1 {fill:#1C4E92}
    .fil0 {fill:#B6A66F}
    .fil3 {fill:#C62829}
    .fil2 {fill:#FECC00}
    .fil4 {fill:#FEFEFE}
   ]]>
  </style>
 </defs>
 <g id="Layer_x0020_1">
  <metadata id="CorelCorpID_0Corel-Layer"/>
  <path class="fil0" d="M9676 4989c-98,0 -245,15 -384,83 -237,117 -361,344 -366,354l-11 21 25 4c2,0 48,7 120,7 98,0 245,-15 384,-83 238,-117 361,-344 366,-354l11 -21 -25 -4c-2,0 -48,-7 -120,-7z"/>
  <path class="fil0" d="M8798 5389l20 15 9 -24c4,-10 88,-255 14,-509 -75,-255 -277,-416 -284,-422l-20 -15 -9 24c-4,10 -88,255 -14,509 75,255 276,416 284,422z"/>
  <path class="fil0" d="M8165 6405c-5,0 -9,0 -14,0 -260,0 -467,140 -476,145l-20 14 20 15c9,6 217,160 482,165 5,0 9,0 14,0 258,0 466,-140 474,-145l20 -14 -20 -15c-9,-6 -217,-160 -482,-165l1 0z"/>
  <path class="fil0" d="M7590 6483l17 -17c7,-7 195,-186 246,-446 51,-261 -55,-497 -58,-507l-10 -22 -17 17c-7,7 -195,186 -246,446 -51,260 53,497 58,507l10 22z"/>
  <path class="fil0" d="M10107 3126c-11,2 -271,63 -451,267 -181,204 -211,468 -212,479l-2 25 24 -5c11,-2 269,-63 451,-266 181,-204 211,-468 212,-479l2 -25 -24 5 0 -1z"/>
  <path class="fil0" d="M9332 3892l-1 -25c0,-11 -15,-277 -184,-491 -169,-214 -423,-289 -435,-293l-24 -6 1 25c0,11 15,277 184,491 169,214 423,289 435,293l24 7 0 -1z"/>
  <path class="fil0" d="M9363 2215l5 25 21 -12c10,-5 240,-139 354,-386 114,-247 66,-509 63,-520l-5 -25 -21 12c-10,5 -240,139 -354,386 -114,247 -66,509 -63,520z"/>
  <path class="fil0" d="M8737 2116c215,149 471,153 499,153l2 0 25 0 -9 -24c-4,-10 -96,-261 -319,-416 -215,-149 -471,-153 -499,-153l-2 0 -25 0 9 24c4,10 96,261 319,416z"/>
  <path class="fil0" d="M9581 4242c-200,174 -262,425 -265,436l-6 24 25 -2c11,-1 268,-27 468,-201 200,-174 262,-425 265,-436l6 -24 -25 2c-11,1 -268,27 -468,201z"/>
  <path class="fil0" d="M9185 4675l22 10 2 -25c1,-11 20,-269 -117,-497 -137,-227 -374,-332 -384,-337l-22 -10 -2 25c-1,11 -20,269 117,497 137,227 374,332 384,337z"/>
  <path class="fil0" d="M8953 5793c-53,0 -104,5 -154,15 -260,53 -437,242 -445,250l-17 19 22 10c6,2 159,70 353,70 53,0 106,-5 154,-15 260,-53 437,-242 445,-250l16 -19 -22 -10c-6,-2 -159,-70 -353,-70l1 0z"/>
  <path class="fil0" d="M8255 6011l14 -20c6,-9 149,-225 142,-489 -7,-265 -163,-472 -169,-481l-15 -20 -14 20c-6,9 -149,225 -142,489 7,265 163,472 169,481l15 20z"/>
  <path class="fil0" d="M7391 6831c-66,-17 -135,-27 -210,-27 -168,0 -294,46 -299,47l-24 9 15 19c7,9 171,209 426,279 66,19 135,27 210,27 168,0 294,-46 299,-48l24 -9 -16 -19c-7,-9 -171,-209 -427,-279l2 1z"/>
  <path class="fil0" d="M7186 6380c114,-240 70,-494 68,-505l-4 -25 -21 12c-10,5 -235,132 -349,371 -114,240 -71,494 -68,505l5 25 21 -12c10,-5 235,-133 349,-371l-1 0z"/>
  <path class="fil0" d="M9614 2529c-145,231 -132,497 -130,508l1 25 22 -9c10,-4 256,-107 401,-338 145,-231 132,-497 130,-508l-1 -25 -22 10c-10,4 -256,107 -401,338l0 -1z"/>
  <path class="fil0" d="M9375 3076l-5 -24c-2,-11 -61,-271 -262,-453 -202,-183 -466,-216 -477,-217l-25 -2 5 24c2,11 61,271 262,453 202,183 466,216 477,217l25 2z"/>
  <path class="fil0" d="M8851 908l22 11 4 -25c1,-11 36,-274 -91,-515 -127,-241 -364,-361 -374,-366l-22 -11 -4 25c-1,11 -36,274 92,517 127,241 364,361 374,366l-1 -1z"/>
  <path class="fil0" d="M9175 1424l19 -16c9,-7 210,-180 277,-445 67,-265 -29,-513 -32,-523l-9 -22 -19 16c-9,7 -211,180 -277,445 -67,265 29,513 32,523l9 24 0 -1z"/>
  <path class="fil0" d="M8532 1418c132,60 269,72 360,72 94,0 158,-12 160,-12l24 -5 -12 -21c-6,-10 -142,-238 -390,-350 -132,-60 -269,-72 -360,-72 -94,0 -158,12 -160,14l-24 5 12 21c6,10 142,238 390,350l0 -1z"/>
  <path class="fil0" d="M1193 5451l25 -4 -11 -21c-5,-10 -129,-237 -366,-354 -139,-68 -286,-83 -384,-83 -72,0 -118,7 -120,7l-25 4 11 21c5,10 129,237 366,354 139,68 286,83 384,83 72,0 118,-7 120,-7z"/>
  <path class="fil0" d="M1314 5405l20 -15c9,-6 211,-168 284,-422 75,-255 -10,-499 -14,-509l-9 -24 -20 15c-9,6 -211,168 -284,422 -73,255 10,499 14,509l9 24z"/>
  <path class="fil0" d="M2475 6565l-20 -14c-9,-6 -216,-145 -476,-145l0 0c-4,0 -9,0 -14,0 -265,5 -473,159 -482,165l-20 15 20 14c9,6 216,145 474,145 5,0 9,0 14,0 265,-5 473,-159 482,-165l20 -15 1 0z"/>
  <path class="fil0" d="M2522 6467l17 17 10 -22c5,-10 109,-246 58,-507 -51,-261 -238,-438 -246,-446l-17 -17 -10 22c-5,10 -109,246 -58,507 51,260 238,438 246,446z"/>
  <path class="fil0" d="M666 3889l24 5 -2 -25c-1,-11 -31,-276 -212,-479 -181,-204 -441,-265 -451,-267l-24 -5 2 25c1,11 31,276 212,479 181,204 441,263 451,266l0 1z"/>
  <path class="fil0" d="M1257 3592c169,-214 184,-479 184,-491l1 -25 -24 6c-11,4 -266,78 -435,293 -169,214 -184,479 -184,491l-1 25 24 -7c11,-2 266,-78 435,-293l0 1z"/>
  <path class="fil0" d="M740 2228l21 12 5 -25c2,-11 50,-273 -63,-520 -114,-247 -344,-381 -354,-386l-21 -12 -5 25c-2,11 -51,272 63,520 114,247 344,381 354,386z"/>
  <path class="fil0" d="M1721 1678l-25 0 -2 0c-29,0 -284,4 -499,153 -224,155 -315,405 -319,416l-9 24 25 0 2 0c29,0 284,-5 499,-153 224,-155 315,-405 319,-416l9 -24z"/>
  <path class="fil0" d="M793 4699l25 2 -6 -24c-2,-11 -65,-262 -265,-436 -200,-174 -457,-200 -468,-201l-25 -2 6 24c2,11 65,262 265,436 200,174 457,200 468,201z"/>
  <path class="fil0" d="M921 4685l22 -10c10,-4 247,-109 384,-337 137,-227 118,-486 117,-497l-2 -25 -22 10c-10,4 -247,109 -384,337 -137,227 -118,486 -117,497l2 25z"/>
  <path class="fil0" d="M1792 6076l-16 -19c-7,-7 -185,-196 -445,-250 -48,-10 -101,-15 -154,-15 -194,0 -346,67 -353,70l-22 10 16 19c7,7 185,196 445,250 48,10 101,15 154,15 194,0 346,-67 353,-70l22 -10z"/>
  <path class="fil0" d="M1874 6011l15 -20c6,-9 161,-216 169,-481 7,-265 -135,-481 -142,-489l-14 -20 -15 20c-6,9 -161,216 -169,481 -7,265 135,481 142,489l14 20z"/>
  <path class="fil0" d="M2948 6804c-73,0 -144,9 -210,27 -256,71 -420,271 -427,279l-15 19 24 9c5,2 133,48 299,48 75,0 144,-9 210,-27 256,-71 420,-271 427,-279l15 -19 -24 -9c-5,-2 -133,-47 -299,-47l0 -1z"/>
  <path class="fil0" d="M3251 6235c-114,-240 -339,-366 -349,-371l-21 -12 -4 25c-2,11 -46,266 68,505 114,240 339,366 349,371l21 12 4 -25c2,-11 46,-266 -68,-505z"/>
  <path class="fil0" d="M623 3052l22 9 1 -25c1,-11 14,-277 -130,-508 -145,-231 -391,-333 -401,-338l-22 -10 -1 25c0,11 -15,277 130,508 145,231 391,333 401,338l0 1z"/>
  <path class="fil0" d="M1519 2403l5 -24 -25 2c-11,1 -276,34 -477,217 -201,183 -260,442 -262,453l-5 24 25 -2c11,-1 274,-34 477,-217 202,-183 261,-442 262,-453z"/>
  <path class="fil0" d="M1257 919l22 -11c10,-5 247,-125 374,-366 127,-241 93,-505 92,-517l-4 -25 -22 11c-10,5 -247,125 -374,366 -127,241 -93,504 -91,515l4 25 -1 1z"/>
  <path class="fil0" d="M936 1408l19 16 9 -24c4,-10 99,-258 32,-523 -67,-265 -269,-437 -277,-445l-19 -16 -9 22c-4,10 -99,258 -32,523 67,265 268,437 277,445l0 1z"/>
  <path class="fil0" d="M1976 1041c-2,0 -66,-14 -160,-14 -92,0 -228,12 -360,72 -248,112 -384,340 -390,350l-12 21 24 5c2,0 66,12 160,12 92,0 228,-12 360,-72 248,-112 384,-340 390,-350l12 -21 -24 -5 0 1z"/>
  <path class="fil0" d="M5086 6876c0,-153 -112,-279 -269,-279 -158,0 -267,124 -267,279 0,153 112,279 269,279 158,0 267,-124 267,-279zm-741 0c0,-253 200,-459 474,-459 274,0 472,205 472,459 0,253 -200,459 -474,459 -274,0 -472,-205 -472,-459z"/>
  <path class="fil0" d="M6256 6876c0,-153 -112,-279 -269,-279 -158,0 -267,124 -267,279 0,153 112,279 269,279 158,0 267,-124 267,-279zm-740 0c0,-253 200,-459 474,-459 274,0 472,205 472,459 0,253 -200,459 -474,459 -274,0 -471,-205 -471,-459l-1 0z"/>
  <polygon class="fil0" points="4059,7135 4058,7135 4058,6450 3925,6450 3669,6527 3710,6687 3866,6648 3866,7135 3714,7135 3714,7312 4208,7312 4208,7135 "/>
  <g id="_176198800">
   <polygon class="fil1" points="2474,84 2474,4075 2747,4075 4633,1207 4246,618 3972,618 3972,463 5009,463 7384,4075 7657,4075 7657,84 "/>
   <polygon class="fil2" points="2474,4231 3510,4231 3510,5268 2474,5268 "/>
   <polygon class="fil2" points="6620,4231 7657,4231 7657,5268 6620,5268 "/>
   <polygon class="fil3" points="5583,2654 5583,5268 6620,5268 6620,4231 "/>
   <polygon class="fil2" points="5065,1865 4547,2654 4547,5268 5583,5268 5583,2654 "/>
   <polygon class="fil3" points="3510,4231 3510,5268 4547,5268 4547,2654 "/>
   <path class="fil4" d="M2736 4749c0,-158 119,-287 289,-287 104,0 163,40 215,91l-73 84c-42,-38 -79,-62 -143,-62 -93,0 -161,78 -161,174 0,96 66,174 161,174 63,0 102,-25 145,-65l78 83c-57,61 -120,94 -227,94 -164,0 -284,-125 -284,-287l0 0z"/>
   <path class="fil4" d="M4196 4749c0,-96 -70,-174 -168,-174 -98,0 -166,78 -166,174 0,96 70,174 168,174 98,0 166,-78 166,-174zm-462 0c0,-158 124,-287 296,-287 171,0 294,128 294,287 0,158 -124,287 -296,287 -171,0 -294,-128 -294,-287z"/>
   <polygon class="fil4" points="6340,5025 6220,5025 6220,4674 5978,5025 5862,5025 5862,4472 5983,4472 5983,4823 6227,4472 6340,4472 "/>
   <path class="fil4" d="M7226 4741l0 -159 -109 0c-60,0 -96,27 -96,81 0,47 34,78 93,78l112 0 0 0zm122 286l-122 0 0 -178 -83 0 -119 178 -143 0 135 -199c-71,-26 -119,-82 -119,-174 0,-115 79,-183 210,-183l241 0 0 555z"/>
   <path class="fil4" d="M5126 4915l0 -332c84,11 142,81 142,166 0,83 -57,153 -142,165zm-263 -165c0,-86 57,-154 142,-166l0 332c-83,-12 -142,-83 -142,-165zm531 0c0,-144 -112,-263 -268,-276l0 -70 -122 0 0 70c-158,12 -269,132 -269,276 0,147 111,265 269,276l0 70 122 0 0 -70c158,-11 268,-129 268,-276z"/>
   <polygon class="fil4" points="7657,4231 7657,4075 7384,4075 5009,463 3972,463 3972,618 4246,618 4633,1207 2747,4075 2474,4075 2474,4231 3510,4231 5065,1865 6620,4231 "/>
   <path class="fil4" d="M3327 1144c0,-34 -25,-57 -66,-57 -41,0 -65,24 -65,58 0,34 25,56 66,56 41,0 65,-24 65,-57zm-204 216l43 -63c27,22 51,32 82,32 46,0 71,-35 76,-86 -19,16 -43,26 -76,26 -82,0 -134,-45 -134,-123 0,-76 58,-132 144,-132 51,0 79,12 108,41 27,27 45,68 45,143 0,122 -57,205 -165,205 -55,0 -92,-19 -123,-45l0 1z"/>
   <path class="fil4" d="M3966 1249l0 -117 -99 117 99 0zm0 67l-184 0 -14 -58 206 -240 70 0 0 231 51 0 0 67 -51 0 0 81 -79 0 0 -81 1 0z"/>
   <path class="fil4" d="M5954 1331l125 -103c47,-38 65,-60 65,-91 0,-32 -21,-48 -51,-48 -29,0 -50,16 -77,51l-58 -47c37,-51 73,-78 140,-78 78,0 129,46 129,117 0,63 -32,94 -99,145l-61 47 164 0 0 71 -278 0 0 -66 1 2z"/>
   <path class="fil4" d="M6626 1208c0,-65 -47,-118 -114,-118 -67,0 -113,53 -113,118 0,65 47,118 114,118 67,0 113,-52 113,-118zm-313 0c0,-107 84,-195 200,-195 115,0 200,87 200,195 0,107 -84,195 -200,195 -115,0 -200,-87 -200,-195z"/>
   <path class="fil4" d="M7262 1249l0 -117 -101 117 101 0zm0 67l-184 0 -14 -58 206 -240 70 0 0 231 51 0 0 67 -51 0 0 81 -79 0 0 -81 1 0z"/>
   <polygon class="fil4" points="3648,1321 3648,1321 3648,1018 3591,1018 3483,1051 3501,1119 3566,1103 3566,1321 3565,1321 3502,1321 3502,1397 3712,1397 3712,1321 "/>
   <polygon class="fil4" points="2986,1321 2985,1321 2985,1018 2929,1018 2821,1051 2839,1119 2904,1103 2904,1321 2903,1321 2840,1321 2840,1397 3050,1397 3050,1321 "/>
   <polygon class="fil4" points="6944,1321 6944,1321 6944,1018 6887,1018 6779,1051 6796,1119 6862,1103 6862,1321 6861,1321 6797,1321 6797,1397 7007,1397 7007,1321 "/>
  </g>
 </g>
</svg>
