<?xml version="1.0" standalone="no"?>
<!DOCTYPE svg PUBLIC "-//W3C//DTD SVG 20010904//EN"
 "http://www.w3.org/TR/2001/REC-SVG-20010904/DTD/svg10.dtd">
<svg version="1.0" xmlns="http://www.w3.org/2000/svg"
 width="250.000000pt" height="250.000000pt" viewBox="0 0 250.000000 250.000000"
 preserveAspectRatio="xMidYMid meet">
<metadata>
Created by potrace 1.11, written by Peter Selinger 2001-2013
</metadata>
<g transform="translate(0.000000,250.000000) scale(0.100000,-0.100000)"
fill="#000000" stroke="none">
<path d="M501 2173 c-1 -7 -7 -13 -13 -13 -30 -1 -109 -72 -131 -118 -12 -26
-23 -49 -24 -51 -2 -2 -24 17 -49 42 -45 46 -64 57 -64 37 0 -17 0 -19 -15
-54 -18 -43 -19 -119 -3 -146 19 -29 3 -35 -37 -12 l-35 21 -7 -42 c-12 -71
-1 -167 18 -167 5 0 9 -7 9 -15 0 -19 -8 -19 -44 0 -16 9 -31 13 -35 10 -3 -3
-5 -33 -4 -67 1 -44 9 -74 27 -110 14 -27 26 -51 26 -53 0 -5 -61 5 -72 11
-16 10 0 -98 20 -138 9 -18 26 -43 39 -56 13 -13 23 -24 23 -26 0 -2 -19 -1
-41 1 l-41 4 7 -37 c12 -69 52 -130 103 -161 l33 -21 -26 -6 c-14 -4 -30 -4
-34 -1 -5 2 -14 -2 -21 -9 -29 -36 97 -166 161 -166 18 0 19 -2 9 -15 -7 -8
-20 -15 -30 -15 -10 0 -23 -7 -30 -15 -10 -12 -5 -21 28 -53 38 -36 122 -81
122 -65 0 4 5 2 11 -4 6 -6 18 -9 25 -6 25 9 14 -12 -16 -32 -16 -11 -29 -24
-27 -29 2 -5 28 -22 57 -39 44 -23 68 -30 118 -30 34 -1 62 -3 62 -5 0 -2 -12
-18 -26 -35 l-27 -32 56 -17 c31 -9 73 -15 94 -13 26 3 71 -7 138 -30 55 -19
111 -36 125 -39 14 -2 58 -11 99 -19 70 -14 326 -16 376 -4 11 3 58 14 105 25
47 12 111 32 144 45 40 17 74 23 110 22 43 -2 141 18 155 31 2 2 -10 17 -27
34 -18 16 -31 31 -29 31 1 1 29 2 62 4 58 2 123 25 170 61 l20 15 -20 14 c-51
36 -51 39 -8 47 23 4 55 14 72 23 41 21 104 82 97 94 -4 5 -22 15 -41 21 -19
6 -35 16 -35 21 0 5 3 8 8 7 4 -1 24 4 44 11 39 13 96 69 122 120 15 28 15 31
-3 41 -11 5 -26 7 -34 4 -32 -12 -24 14 15 46 40 34 76 100 83 153 4 27 2 28
-31 24 -40 -6 -49 3 -26 26 29 27 39 42 51 78 15 47 25 123 15 116 -5 -3 -26
-8 -47 -11 l-38 -6 19 27 c31 46 44 89 44 148 1 30 -1 57 -3 59 -2 2 -15 -1
-29 -7 -42 -17 -52 -17 -45 1 4 9 8 23 8 30 0 6 3 12 7 12 17 0 12 151 -5 168
-3 3 -19 -2 -36 -12 -36 -21 -46 -15 -31 19 7 14 12 43 12 64 0 40 -26 127
-40 136 -10 6 -70 -49 -87 -80 -11 -18 -13 -16 -33 30 -12 27 -37 63 -55 80
-41 36 -103 71 -111 62 -3 -3 -6 -36 -7 -74 0 -53 5 -78 23 -113 12 -25 28
-48 34 -52 6 -4 -5 -8 -24 -9 -36 -1 -57 -4 -97 -14 l-23 -5 0 120 c0 66 -3
120 -7 121 -10 0 -1198 0 -1240 0 l-33 -1 0 -116 0 -116 -37 3 c-21 1 -46 6
-55 11 -11 5 -18 5 -18 -1 0 -5 -9 -7 -19 -4 -19 5 -19 6 4 42 27 40 43 101
38 147 -3 33 -21 88 -22 67z"/>
</g>
</svg>
